<svg id="Groupe_55" data-name="Groupe 55" xmlns="http://www.w3.org/2000/svg" xmlns:xlink="http://www.w3.org/1999/xlink" width="115.158" height="115.128" viewBox="0 0 115.158 115.128">
  <defs>
    <clipPath id="clip-path">
      <rect id="Rectangle_5" data-name="Rectangle 5" width="115.158" height="115.128" fill="none"/>
    </clipPath>
  </defs>
  <g id="Groupe_6" data-name="Groupe 6" clip-path="url(#clip-path)">
    <path id="Tracé_3" data-name="Tracé 3" d="M97.845,17.489l10.65,6.149,1.229.709,7.45-4.3,1.256-.725,1.256.725,29.852,17.235,2.908,1.679v-.009l.418-24.484V11.42l-.417-.327A57.3,57.3,0,0,0,120.244,0,59.115,59.115,0,0,0,99.671,3.1,57.392,57.392,0,0,0,85.462,10.34l1.179.681,4.806,2.774Z" transform="translate(-60.85)" fill="#ffc700" fill-rule="evenodd"/>
    <path id="Tracé_4" data-name="Tracé 4" d="M89.443,120.6a3.716,3.716,0,0,0-.042-.564l19.544-6.479.113.134a56.581,56.581,0,0,1-25.268,23.232l2-12.63a3.693,3.693,0,0,0,3.656-3.693m-26.273,3.01a118.763,118.763,0,0,0,15.618-10.888,47.379,47.379,0,0,0,9.2-10.21l-2.274,14.4a3.693,3.693,0,0,0-3.656,3.664Zm-55.345-11a1.9,1.9,0,0,0,.642,1.232,1.989,1.989,0,0,1-.642-1.232m-4.293-16,1.13-.653h0ZM94.056,70.449a98.882,98.882,0,0,1-1.085,14.907,45.16,45.16,0,0,1-3.613,12.17l-.261-.018a1.906,1.906,0,0,0-1.423,3.176,44.9,44.9,0,0,1-9.687,11.1,127.213,127.213,0,0,1-17.893,12.229l1.807,1.042,20.348-3.273a3.7,3.7,0,0,0,2.325,2.317l-2.036,12.871,1.816,1.048a57.839,57.839,0,0,0,25.782-23.737,1.967,1.967,0,0,0,.331.029,1.907,1.907,0,0,0,1.367-3.237,57.046,57.046,0,0,0,4.153-11.408,57.714,57.714,0,0,0,1.686-13.88q0-1.239-.059-2.571l-.037-.757-.319-3.616A57.206,57.206,0,0,0,110.7,58.306a57.817,57.817,0,0,0-13.733-16.74l-2.44-1.911V42.7ZM35.443,130.88l.976-1.69h0Z" transform="translate(-2.516 -28.234)" fill="#1b9784" fill-rule="evenodd"/>
    <path id="Tracé_5" data-name="Tracé 5" d="M111.7,306.343l-4.043,7-.976,1.692-2.481,4.3-.617,1.069q1.711.943,3.489,1.771l-.014.007.807.355.591.261.747.328,0-.013a57.42,57.42,0,0,0,22.132,4.408,57.818,57.818,0,0,0,11.853-1.222,57.236,57.236,0,0,0,10.277-3.186l0,.013.747-.328.591-.261.806-.355-.013-.007-1.815-1.048L133.139,309.21l-1.807-1.043a147.047,147.047,0,0,1-14.986-9.874l-.62,1.075-3.369,5.835Z" transform="translate(-73.753 -212.391)" fill="#3e3988" fill-rule="evenodd"/>
    <path id="Tracé_6" data-name="Tracé 6" d="M169.608,158.361V169.3a4.538,4.538,0,1,0,9.076,0V158.361a10.434,10.434,0,0,0-4.538-19.829h0a10.434,10.434,0,0,0-4.537,19.829" transform="translate(-116.566 -98.637)" fill="#1b9784" fill-rule="evenodd"/>
    <path id="Tracé_7" data-name="Tracé 7" d="M25.74,191.252l-9.3,5.367-6.223,3.594L4.663,203.42l-1.13.653q.294,1.544.668,3.057a57.119,57.119,0,0,0,4.153,11.408l1.7,3.208a57.888,57.888,0,0,0,22.293,21.966l.617-1.069,2.481-4.3.976-1.691.09-.153.144-.25.283-.491.139-.242.138-.239.136-.236.135-.234.134-.232,6.869-11.9.62-1.075q-1.527-1.178-2.907-2.355a43.656,43.656,0,0,1-11.371-14.257,45.149,45.149,0,0,1-3.613-12.17q-.178-1.1-.325-2.236Z" transform="translate(-2.516 -135.701)" fill="#db0617" fill-rule="evenodd"/>
    <path id="Tracé_8" data-name="Tracé 8" d="M25.79,36.584,24.611,35.9q-.53.371-1.051.753L20.7,38.895A57.657,57.657,0,0,0,1.017,93.936l1.131-.653,5.558-3.209,6.223-3.593,9.3-5.367,1.153-.665a109.043,109.043,0,0,1-.76-12.671V64.492l2.853-1.647,22.4-12.934L47.644,49.2l-10.65-6.149-6.4-3.694Z" transform="translate(0 -25.564)" fill="#ee6f19" fill-rule="evenodd"/>
    <path id="Tracé_9" data-name="Tracé 9" d="M169.608,158.361V169.3a4.538,4.538,0,1,0,9.076,0V158.361a10.434,10.434,0,0,0-4.538-19.829h0a10.434,10.434,0,0,0-4.537,19.829" transform="translate(-116.566 -98.637)" fill="#1b9784" fill-rule="evenodd"/>
  </g>
</svg>
