<svg id="Groupe_59" data-name="Groupe 59" xmlns="http://www.w3.org/2000/svg" xmlns:xlink="http://www.w3.org/1999/xlink" width="298.824" height="62" viewBox="0 0 298.824 62">
  <defs>
    <clipPath id="clip-path">
      <rect id="Rectangle_42" data-name="Rectangle 42" width="298.824" height="62" fill="none"/>
    </clipPath>
  </defs>
  <g id="Groupe_59-2" data-name="Groupe 59" clip-path="url(#clip-path)">
    <path id="Tracé_24" data-name="Tracé 24" d="M458.83,6.187,462.6,8.362l.435.251,2.635-1.521.445-.256.444.256,10.56,6.1,1.029.594v0l.148-8.661V4.04l-.148-.115A20.27,20.27,0,0,0,466.754,0a20.909,20.909,0,0,0-7.277,1.1,20.3,20.3,0,0,0-5.026,2.562l.417.241,1.7.981Z" transform="translate(-371.56)" fill="#ffc700" fill-rule="evenodd"/>
    <path id="Tracé_25" data-name="Tracé 25" d="M439.082,50.779a1.31,1.31,0,0,0-.015-.2l6.914-2.292.04.048a20.014,20.014,0,0,1-8.938,8.218l.706-4.468a1.306,1.306,0,0,0,1.293-1.307m-9.294,1.065a42.006,42.006,0,0,0,5.525-3.852,16.757,16.757,0,0,0,3.254-3.612l-.8,5.092a1.307,1.307,0,0,0-1.293,1.3ZM410.21,47.953a.674.674,0,0,0,.227.436.7.7,0,0,1-.227-.436m-1.518-5.66.4-.231h0Zm32.022-9.253a34.978,34.978,0,0,1-.384,5.273,15.98,15.98,0,0,1-1.278,4.3l-.092-.006a.674.674,0,0,0-.5,1.123,15.884,15.884,0,0,1-3.427,3.926,44.972,44.972,0,0,1-6.329,4.326l.639.369,7.2-1.158a1.31,1.31,0,0,0,.822.82l-.72,4.553.642.371a20.46,20.46,0,0,0,9.12-8.4.69.69,0,0,0,.117.01A.675.675,0,0,0,447,47.411a20.185,20.185,0,0,0,1.469-4.036,20.423,20.423,0,0,0,.6-4.91q0-.438-.021-.909l-.013-.268-.113-1.279a20.234,20.234,0,0,0-2.319-7.264,20.45,20.45,0,0,0-4.858-5.922l-.863-.676v1.078ZM419.98,54.417l.345-.6h0Z" transform="translate(-334.148 -18.107)" fill="#1b9784" fill-rule="evenodd"/>
    <path id="Tracé_26" data-name="Tracé 26" d="M467.442,169.447l-1.43,2.477-.345.6-.878,1.52-.218.378q.605.333,1.234.626l0,0,.286.125.209.092.264.116v0a20.391,20.391,0,0,0,15.657,0v0l.264-.116.209-.092.285-.125,0,0-.642-.371-7.3-4.215-.639-.369a52.014,52.014,0,0,1-5.3-3.493l-.219.38-1.192,2.064Z" transform="translate(-379.835 -136.213)" fill="#3e3988" fill-rule="evenodd"/>
    <path id="Tracé_27" data-name="Tracé 27" d="M500.24,84.386v3.871a1.605,1.605,0,0,0,3.211,0V84.386a3.691,3.691,0,0,0-1.605-7.014h0a3.691,3.691,0,0,0-1.605,7.014" transform="translate(-407.293 -63.26)" fill="#1b9784" fill-rule="evenodd"/>
    <path id="Tracé_28" data-name="Tracé 28" d="M446.339,267.594v2.135h-1.557v.608h1.557V274.8c0,1.438.5,2.357,2.061,2.357a3.2,3.2,0,0,0,1.379-.371l-.252-.593a2.719,2.719,0,0,1-1.127.3c-1.142,0-1.349-.7-1.349-1.69v-4.463h2.491v-.608H447.05V267.52Zm-11.268,2.135v7.324h.726v-4.077a2.545,2.545,0,0,1,2.565-2.669,2.345,2.345,0,0,1,2.609,2.535v4.211h.727v-4.225a3.055,3.055,0,0,0-3.306-3.232,2.914,2.914,0,0,0-2.609,1.438v-1.3ZM424.5,273.095a2.927,2.927,0,0,1,2.98-2.817,2.687,2.687,0,0,1,2.965,2.817Zm2.98,4.062a4.026,4.026,0,0,0,3.158-1.408l-.519-.415a3.445,3.445,0,0,1-2.639,1.112,2.881,2.881,0,0,1-2.98-2.713h6.6c.282-2.861-1.557-4.122-3.618-4.122a3.682,3.682,0,0,0-3.721,3.781,3.592,3.592,0,0,0,3.721,3.766m-7.443-.1v-4.389a2.946,2.946,0,0,0-3.069-3.084,2.83,2.83,0,0,0-2.714,1.809,2.693,2.693,0,0,0-2.713-1.809,2.581,2.581,0,0,0-2.387,1.364l-.015-1.215h-.682v7.324h.727v-4.344a2.351,2.351,0,1,1,4.7,0v4.344h.727v-4.344a2.313,2.313,0,0,1,2.357-2.446,2.265,2.265,0,0,1,2.342,2.4v4.389Zm-22-3.958a2.927,2.927,0,0,1,2.98-2.817,2.687,2.687,0,0,1,2.965,2.817Zm2.98,4.062a4.027,4.027,0,0,0,3.158-1.408l-.519-.415a3.444,3.444,0,0,1-2.639,1.112,2.881,2.881,0,0,1-2.98-2.713h6.6c.281-2.861-1.557-4.122-3.618-4.122a3.682,3.682,0,0,0-3.721,3.781,3.592,3.592,0,0,0,3.721,3.766m-10.467-.1h.8l3.069-7.324h-.8l-2.669,6.479-2.669-6.479h-.8Zm-9.711-.608a2.9,2.9,0,0,1-3.01-3.039,3.012,3.012,0,1,1,6.019,0,2.9,2.9,0,0,1-3.01,3.039m0,.712a3.58,3.58,0,0,0,3.721-3.751,3.722,3.722,0,1,0-7.443,0,3.58,3.58,0,0,0,3.722,3.751m-11.283-7.428v7.324h.727v-4.27a2.433,2.433,0,0,1,2.416-2.446,2.356,2.356,0,0,1,1.245.341l.326-.593a2.859,2.859,0,0,0-1.572-.43,2.577,2.577,0,0,0-2.432,1.379l-.03-1.3Zm-10.616,10.378v-4.744a3.306,3.306,0,0,0,3.025,1.824,3.784,3.784,0,0,0,.163-7.561,3.49,3.49,0,0,0-3.173,1.838v-1.735h-.712v10.378Zm3.025-3.618a3.086,3.086,0,0,1,0-6.168,3.085,3.085,0,0,1,0,6.168m-7.71.563v-4.389a2.946,2.946,0,0,0-3.069-3.084,2.83,2.83,0,0,0-2.714,1.809,2.693,2.693,0,0,0-2.713-1.809,2.581,2.581,0,0,0-2.387,1.364l-.015-1.215h-.682v7.324h.727v-4.344a2.351,2.351,0,1,1,4.7,0v4.344h.726v-4.344a2.313,2.313,0,0,1,2.358-2.446,2.265,2.265,0,0,1,2.342,2.4v4.389Zm-16.679-9.711a.586.586,0,0,0,1.171,0,.586.586,0,0,0-1.171,0m.934,9.711h-.726V269.7h.726Zm-8.821-6.464a3.836,3.836,0,0,0-2.728-.979c-1.483-.015-2.921.608-2.906,2.046.015,1.468,1.423,1.735,2.846,1.972,1.2.193,2.417.4,2.387,1.453-.045,1.157-1.394,1.394-2.283,1.394a3.25,3.25,0,0,1-2.684-1.245l-.534.475a3.775,3.775,0,0,0,3.2,1.468c1.29,0,2.965-.43,3.009-2.046.074-1.705-1.72-1.928-3.024-2.15-.919-.163-2.194-.356-2.224-1.334-.03-.934,1.068-1.364,2.209-1.349a3.13,3.13,0,0,1,2.283.771Zm-9.474,6.464v-7.339h-.726v4.077a2.545,2.545,0,0,1-2.565,2.669,2.345,2.345,0,0,1-2.609-2.535v-4.211h-.726v4.225a3.055,3.055,0,0,0,3.306,3.232,2.914,2.914,0,0,0,2.609-1.438v1.319Zm-14.1-.608a2.894,2.894,0,0,1-3.01-3.039,3.012,3.012,0,1,1,6.02,0,2.9,2.9,0,0,1-3.01,3.039m0,.712a3.58,3.58,0,0,0,3.721-3.751,3.722,3.722,0,1,0-7.443,0,3.58,3.58,0,0,0,3.721,3.751m-7.384-.1v-7.339H298v4.077a2.545,2.545,0,0,1-2.565,2.669,2.345,2.345,0,0,1-2.609-2.535v-4.211H292.1v4.225a3.055,3.055,0,0,0,3.307,3.232,2.914,2.914,0,0,0,2.609-1.438v1.319ZM281.8,269.729v7.324h.726v-4.077a2.545,2.545,0,0,1,2.565-2.669,2.345,2.345,0,0,1,2.609,2.535v4.211h.727v-4.225a3.055,3.055,0,0,0-3.306-3.232,2.914,2.914,0,0,0-2.609,1.438v-1.3Zm-5.1-2.387a.586.586,0,0,0,1.171,0,.586.586,0,0,0-1.171,0m.934,9.711h-.726V269.7h.726Zm-7.695-9.459v2.135H268.38v.608h1.557V274.8c0,1.438.5,2.357,2.061,2.357a3.2,3.2,0,0,0,1.379-.371l-.252-.593a2.717,2.717,0,0,1-1.127.3c-1.141,0-1.349-.7-1.349-1.69v-4.463h2.491v-.608h-2.491V267.52Zm-11.268,2.135v7.324h.726v-4.077a2.545,2.545,0,0,1,2.565-2.669,2.345,2.345,0,0,1,2.609,2.535v4.211h.727v-4.225a3.055,3.055,0,0,0-3.306-3.232,2.914,2.914,0,0,0-2.61,1.438v-1.3Zm-7.487,6.716a2.9,2.9,0,0,1-3.01-3.039,3.012,3.012,0,1,1,6.019,0,2.9,2.9,0,0,1-3.01,3.039m0,.712a3.58,3.58,0,0,0,3.721-3.751,3.722,3.722,0,1,0-7.442,0,3.579,3.579,0,0,0,3.721,3.751m-7.591-1.616a3.1,3.1,0,0,1-2.18.9,3.054,3.054,0,0,1,0-6.108,3.105,3.105,0,0,1,2.194.875l.475-.46a3.809,3.809,0,0,0-2.669-1.1,3.736,3.736,0,1,0,0,7.472,3.747,3.747,0,0,0,2.669-1.1Z" transform="translate(-194.299 -218.107)" fill="#0e1423" fill-rule="evenodd"/>
    <path id="Tracé_29" data-name="Tracé 29" d="M262.741,300.435h36.083v-1.607H262.741ZM0,300.435H36.083v-1.607H0Z" transform="translate(0 -244.323)" fill="#0e1423" fill-rule="evenodd"/>
    <path id="Tracé_30" data-name="Tracé 30" d="M13.775,2.543H46.03V9.879H33.57V41.8H26.235V9.879H13.775ZM7.335,16.318V2.543H0V41.8H7.335Zm38.7,10.359H66.7V20.406H46.037Z" transform="translate(0 -2.079)" fill="#0e1423" fill-rule="evenodd"/>
    <path id="Tracé_31" data-name="Tracé 31" d="M693.99,73.218c1.008-3.584,4.031-5.376,7.728-5.376,3.92,0,6.719,1.792,7.167,5.376ZM682.174,90.241v-14.5c0-8.68-5.208-13.552-11.7-13.552-3.472,0-6.272,1.4-9.071,4.144l-.448-3.752h-6.1V90.241h6.776V76.129c0-4.2,2.856-7.727,7.055-7.727,4.368,0,6.664,3.192,6.664,7.392V90.241Zm33.262-11.367c1.064-11.367-4.7-17.079-13.943-17.079-8.959,0-14.671,6.048-14.671,14.447,0,8.847,5.656,14.727,15.175,14.727,4.2,0,8.96-1.456,11.872-4.48L709.5,82.177c-1.568,1.624-4.872,2.576-7.392,2.576-4.816,0-7.784-2.464-8.232-5.88Z" transform="translate(-535.406 -50.523)" fill="#1b9784" fill-rule="evenodd"/>
    <path id="Tracé_32" data-name="Tracé 32" d="M1017.789,5.119a2.212,2.212,0,0,0,4.424,0,2.212,2.212,0,0,0-4.424,0m3.528,36.678h-2.744V14.022h2.744Zm9.071-14.951c.616-6.776,5.544-10.639,11.255-10.639,6.664,0,11.144,3.808,11.2,10.639Zm11.255,15.343c4.424,0,9.239-1.792,11.927-5.32l-1.96-1.568c-2.072,2.744-6.327,4.2-9.968,4.2a10.883,10.883,0,0,1-11.255-10.247h24.919c1.064-10.808-5.88-15.567-13.663-15.567a13.907,13.907,0,0,0-14.055,14.279c0,8.792,6.272,14.223,14.055,14.223m58.013-28.055h-3.024l-8.287,24.471-8.4-24.471h-1.96l-8.456,24.471-8.344-24.471h-3.024l9.855,27.663h3.024l4.48-12.039,3.472-10.808,3.36,10.751,4.48,12.1h3.024ZM1011.741,2.543l-14.5,35.884-14.5-35.884h-3.247l16.127,39.366h3.248l16.127-39.366Z" transform="translate(-800.832 -2.079)" fill="#0e1423" fill-rule="evenodd"/>
    <path id="Tracé_33" data-name="Tracé 33" d="M416.548,106.679l-3.288,1.9-2.2,1.271-1.966,1.135-.4.231q.1.546.237,1.082a20.2,20.2,0,0,0,1.469,4.036l.6,1.135a20.48,20.48,0,0,0,7.886,7.77l.218-.378.878-1.52.345-.6.032-.054.051-.088.1-.174.049-.086.049-.085.048-.084.048-.083.047-.082,2.43-4.209.219-.38q-.54-.417-1.029-.833a15.444,15.444,0,0,1-4.022-5.043,15.975,15.975,0,0,1-1.278-4.3q-.063-.387-.115-.791Z" transform="translate(-334.148 -87.029)" fill="#db0617" fill-rule="evenodd"/>
    <path id="Tracé_34" data-name="Tracé 34" d="M415.843,20.294l-.417-.241q-.188.131-.372.266l-1.011.792a20.4,20.4,0,0,0-6.963,19.47l.4-.231,1.966-1.135,2.2-1.271,3.288-1.9.408-.235a38.6,38.6,0,0,1-.269-4.482V30.166l1.009-.583,7.924-4.575-.435-.251-3.767-2.175-2.263-1.307Z" transform="translate(-332.536 -16.395)" fill="#ee6f19" fill-rule="evenodd"/>
  </g>
</svg>
